<svg version="1.0" xmlns="http://www.w3.org/2000/svg" width="128.000000pt" height="128.000000pt"
    viewBox="0 0 128.000000 128.000000" preserveAspectRatio="xMidYMid meet">

    <g transform="translate(0.000000,128.000000) scale(0.100000,-0.100000)" fill="#000000" stroke="none">
        <path d="M199 1253 c-11 -13 -14 -124 -17 -608 -2 -571 -2 -593 17 -616 28
-35 49 -23 212 121 79 69 151 131 160 138 16 11 37 -5 183 -133 158 -139 194
-161 213 -132 4 6 10 122 13 256 l5 244 105 -90 c129 -111 140 -117 168 -97
12 8 22 24 22 34 0 12 -55 66 -150 147 l-150 128 0 293 c0 183 -4 301 -10 313
-22 41 -54 23 -217 -121 -87 -77 -163 -139 -170 -138 -6 2 -84 65 -173 141
-88 75 -169 137 -179 137 -10 0 -25 -7 -32 -17z m361 -367 c151 -129 276 -239
277 -243 4 -12 -235 -218 -252 -218 -7 0 -79 58 -159 128 l-146 128 0 152 c0
84 -3 182 -7 220 -3 40 -2 67 4 67 5 0 133 -105 283 -234z m330 38 c0 -192 0
-196 -19 -183 -54 39 -209 175 -207 182 2 11 209 196 219 197 4 0 7 -88 7
-196z m-387 -584 c-22 -20 -181 -158 -205 -179 -17 -13 -18 -3 -18 198 l0 212
121 -107 c115 -102 120 -108 102 -124z m387 13 c0 -195 -1 -205 -17 -191 -10
9 -62 54 -116 101 -54 47 -99 89 -100 92 -2 8 214 204 226 204 4 1 7 -92 7
-206z" />
    </g>
</svg>